<svg preserveAspectRatio="none" width="100%" height="100%" overflow="visible" style="display: block;" viewBox="0 0 16 16" fill="none" xmlns="http://www.w3.org/2000/svg">
<g id="Group">
<path id="Vector" fill-rule="evenodd" clip-rule="evenodd" d="M3.2 1.6H12.8C13.6487 1.6 14.4626 1.93714 15.0627 2.53726C15.6629 3.13737 16 3.95131 16 4.8V12.8C16 13.6487 15.6629 14.4626 15.0627 15.0627C14.4626 15.6629 13.6487 16 12.8 16H3.2C2.35131 16 1.53737 15.6629 0.937258 15.0627C0.337142 14.4626 0 13.6487 0 12.8V4.8C0 3.95131 0.337142 3.13737 0.937258 2.53726C1.53737 1.93714 2.35131 1.6 3.2 1.6ZM3.2 3.2C2.77565 3.2 2.36869 3.36857 2.06863 3.66863C1.76857 3.96869 1.6 4.37565 1.6 4.8V12.8C1.6 13.2243 1.76857 13.6313 2.06863 13.9314C2.36869 14.2314 2.77565 14.4 3.2 14.4H12.8C13.2243 14.4 13.6313 14.2314 13.9314 13.9314C14.2314 13.6313 14.4 13.2243 14.4 12.8V4.8C14.4 4.37565 14.2314 3.96869 13.9314 3.66863C13.6313 3.36857 13.2243 3.2 12.8 3.2H3.2Z" fill="var(--fill-0, #FFD900)"/>
<path id="Vector_2" fill-rule="evenodd" clip-rule="evenodd" d="M0.8 6.4C0.8 6.18783 0.884285 5.98434 1.03431 5.83431C1.18434 5.68429 1.38783 5.6 1.6 5.6H14.4C14.6122 5.6 14.8157 5.68429 14.9657 5.83431C15.1157 5.98434 15.2 6.18783 15.2 6.4C15.2 6.61217 15.1157 6.81566 14.9657 6.96568C14.8157 7.11571 14.6122 7.2 14.4 7.2H1.6C1.38783 7.2 1.18434 7.11571 1.03431 6.96568C0.884285 6.81566 0.8 6.61217 0.8 6.4ZM4.8 0C5.01217 0 5.21566 0.0842854 5.36569 0.234315C5.51571 0.384344 5.6 0.587827 5.6 0.8V4C5.6 4.21217 5.51571 4.41566 5.36569 4.56569C5.21566 4.71571 5.01217 4.8 4.8 4.8C4.58783 4.8 4.38434 4.71571 4.23431 4.56569C4.08429 4.41566 4 4.21217 4 4V0.8C4 0.587827 4.08429 0.384344 4.23431 0.234315C4.38434 0.0842854 4.58783 0 4.8 0ZM11.2 0C11.4122 0 11.6157 0.0842854 11.7657 0.234315C11.9157 0.384344 12 0.587827 12 0.8V4C12 4.21217 11.9157 4.41566 11.7657 4.56569C11.6157 4.71571 11.4122 4.8 11.2 4.8C10.9878 4.8 10.7843 4.71571 10.6343 4.56569C10.4843 4.41566 10.4 4.21217 10.4 4V0.8C10.4 0.587827 10.4843 0.384344 10.6343 0.234315C10.7843 0.0842854 10.9878 0 11.2 0Z" fill="var(--fill-0, #FFD900)"/>
<path id="Vector_3" d="M4.8 8.8C4.8 9.01217 4.71571 9.21566 4.56569 9.36569C4.41566 9.51571 4.21217 9.6 4 9.6C3.78783 9.6 3.58434 9.51571 3.43431 9.36569C3.28429 9.21566 3.2 9.01217 3.2 8.8C3.2 8.58783 3.28429 8.38434 3.43431 8.23431C3.58434 8.08429 3.78783 8 4 8C4.21217 8 4.41566 8.08429 4.56569 8.23431C4.71571 8.38434 4.8 8.58783 4.8 8.8ZM4.8 12C4.8 12.2122 4.71571 12.4157 4.56569 12.5657C4.41566 12.7157 4.21217 12.8 4 12.8C3.78783 12.8 3.58434 12.7157 3.43431 12.5657C3.28429 12.4157 3.2 12.2122 3.2 12C3.2 11.7878 3.28429 11.5843 3.43431 11.4343C3.58434 11.2843 3.78783 11.2 4 11.2C4.21217 11.2 4.41566 11.2843 4.56569 11.4343C4.71571 11.5843 4.8 11.7878 4.8 12ZM8.8 8.8C8.8 9.01217 8.71571 9.21566 8.56569 9.36569C8.41566 9.51571 8.21217 9.6 8 9.6C7.78783 9.6 7.58434 9.51571 7.43431 9.36569C7.28429 9.21566 7.2 9.01217 7.2 8.8C7.2 8.58783 7.28429 8.38434 7.43431 8.23431C7.58434 8.08429 7.78783 8 8 8C8.21217 8 8.41566 8.08429 8.56569 8.23431C8.71571 8.38434 8.8 8.58783 8.8 8.8ZM8.8 12C8.8 12.2122 8.71571 12.4157 8.56569 12.5657C8.41566 12.7157 8.21217 12.8 8 12.8C7.78783 12.8 7.58434 12.7157 7.43431 12.5657C7.28429 12.4157 7.2 12.2122 7.2 12C7.2 11.7878 7.28429 11.5843 7.43431 11.4343C7.58434 11.2843 7.78783 11.2 8 11.2C8.21217 11.2 8.41566 11.2843 8.56569 11.4343C8.71571 11.5843 8.8 11.7878 8.8 12ZM12.8 8.8C12.8 9.01217 12.7157 9.21566 12.5657 9.36569C12.4157 9.51571 12.2122 9.6 12 9.6C11.7878 9.6 11.5843 9.51571 11.4343 9.36569C11.2843 9.21566 11.2 9.01217 11.2 8.8C11.2 8.58783 11.2843 8.38434 11.4343 8.23431C11.5843 8.08429 11.7878 8 12 8C12.2122 8 12.4157 8.08429 12.5657 8.23431C12.7157 8.38434 12.8 8.58783 12.8 8.8ZM12.8 12C12.8 12.2122 12.7157 12.4157 12.5657 12.5657C12.4157 12.7157 12.2122 12.8 12 12.8C11.7878 12.8 11.5843 12.7157 11.4343 12.5657C11.2843 12.4157 11.2 12.2122 11.2 12C11.2 11.7878 11.2843 11.5843 11.4343 11.4343C11.5843 11.2843 11.7878 11.2 12 11.2C12.2122 11.2 12.4157 11.2843 12.5657 11.4343C12.7157 11.5843 12.8 11.7878 12.8 12Z" fill="var(--fill-0, #FFD900)"/>
</g>
</svg>
