<svg preserveAspectRatio="none" width="100%" height="100%" overflow="visible" style="display: block;" viewBox="0 0 15.5078 15.4962" fill="none" xmlns="http://www.w3.org/2000/svg">
<path id="Vector" d="M8.13878 0.854448C8.25553 0.922843 8.35194 1.02111 8.41809 1.13914C9.06899 2.31924 9.60476 3.56005 10.018 4.84283C10.0751 5.00929 10.1821 5.15409 10.3245 5.2575C10.4669 5.36091 10.6377 5.4179 10.8137 5.42071C11.9266 5.44884 13.0359 5.55932 14.1325 5.75125C14.7353 5.85703 14.9608 6.54301 14.533 6.96145C13.7033 7.77308 12.817 8.52474 11.8808 9.21073C11.5946 9.41995 11.4779 9.77849 11.5868 10.1067C11.9316 11.1429 12.195 12.2044 12.3747 13.2815C12.4105 13.4993 12.4434 13.7184 12.4735 13.9387C12.5512 14.5259 11.922 14.9405 11.3768 14.6605C10.2939 14.1057 9.25855 13.4626 8.2812 12.7379C8.12809 12.6261 7.94343 12.5659 7.75387 12.5659C7.5643 12.5659 7.37964 12.6261 7.22653 12.7379C6.24899 13.4623 5.21366 14.1054 4.13095 14.6605C3.58495 14.9405 2.9565 14.5259 3.03428 13.9387C3.20929 12.6365 3.50615 11.3535 3.92095 10.1067C4.02984 9.77849 3.91239 9.41995 3.62695 9.21073C2.80171 8.60469 2.01465 7.94831 1.27026 7.24533C1.17071 7.152 1.07219 7.05737 0.974704 6.96145C0.546923 6.54301 0.773258 5.85703 1.37526 5.75125C2.47201 5.56044 3.58123 5.44996 4.69407 5.42071C5.06118 5.41059 5.38163 5.17804 5.48974 4.84283C5.80361 3.8682 6.18834 2.91784 6.64086 1.99934C6.78449 1.70898 6.93408 1.42224 7.08964 1.13914C7.1558 1.02111 7.25221 0.922843 7.36895 0.854448C7.4857 0.786053 7.61856 0.75 7.75387 0.75C7.88917 0.75 8.02204 0.786053 8.13878 0.854448Z" stroke="var(--stroke-0, #FFD900)" stroke-width="1.5" stroke-linecap="round" stroke-linejoin="round"/>
</svg>
