<svg preserveAspectRatio="none" width="100%" height="100%" overflow="visible" style="display: block;" viewBox="0 0 18 16" fill="none" xmlns="http://www.w3.org/2000/svg">
<path id="Vector" d="M3.6 16C3.345 16 3.1314 15.9147 2.9592 15.744C2.787 15.5733 2.7006 15.3624 2.7 15.1111C2.6994 14.8598 2.7858 14.6489 2.9592 14.4782C3.1326 14.3075 3.3462 14.2222 3.6 14.2222H14.4C14.655 14.2222 14.8689 14.3075 15.0417 14.4782C15.2145 14.6489 15.3006 14.8598 15.3 15.1111C15.2994 15.3624 15.213 15.5736 15.0408 15.7449C14.8686 15.9161 14.655 16.0012 14.4 16H3.6ZM4.23 12.8889C3.795 12.8889 3.4089 12.7481 3.0717 12.4667C2.7345 12.1852 2.5281 11.8296 2.4525 11.4L1.5525 5.75555C1.5225 5.75555 1.4889 5.7594 1.4517 5.76711C1.4145 5.77481 1.3806 5.77837 1.35 5.77777C0.975002 5.77777 0.656402 5.64829 0.394202 5.38933C0.132002 5.13037 0.000602045 4.81541 2.04545e-06 4.44444C-0.000597954 4.07348 0.130802 3.75881 0.394202 3.50044C0.657602 3.24207 0.976201 3.1123 1.35 3.11111C1.7238 3.10993 2.0427 3.2397 2.3067 3.50044C2.5707 3.76118 2.7018 4.07585 2.7 4.44444C2.7 4.54815 2.6886 4.64444 2.6658 4.73333C2.643 4.82222 2.6169 4.9037 2.5875 4.97778L5.4 6.22222L8.2125 2.42222C8.0475 2.3037 7.9125 2.14815 7.8075 1.95556C7.7025 1.76296 7.65 1.55556 7.65 1.33333C7.65 0.962964 7.7814 0.648001 8.0442 0.388446C8.307 0.128891 8.6256 -0.000590567 9 2.0248e-06C9.3744 0.000594617 9.6933 0.130372 9.9567 0.389335C10.2201 0.648298 10.3512 0.962964 10.35 1.33333C10.35 1.55556 10.2975 1.76296 10.1925 1.95556C10.0875 2.14815 9.9525 2.3037 9.7875 2.42222L12.6 6.22222L15.4125 4.97778C15.3825 4.9037 15.3561 4.82222 15.3333 4.73333C15.3105 4.64444 15.2994 4.54815 15.3 4.44444C15.3 4.07407 15.4314 3.75911 15.6942 3.49955C15.957 3.24 16.2756 3.11052 16.65 3.11111C17.0244 3.1117 17.3433 3.24148 17.6067 3.50044C17.8701 3.75941 18.0012 4.07407 18 4.44444C17.9988 4.81481 17.8677 5.12978 17.6067 5.38933C17.3457 5.64889 17.0268 5.77837 16.65 5.77777C16.62 5.77777 16.5864 5.77422 16.5492 5.76711C16.512 5.76 16.4781 5.75615 16.4475 5.75555L15.5475 11.4C15.4725 11.8296 15.2664 12.1852 14.9292 12.4667C14.592 12.7481 14.2056 12.8889 13.77 12.8889H4.23ZM4.23 11.1111H13.77L14.355 7.4L13.32 7.84444C12.93 8.0074 12.5325 8.03703 12.1275 7.93333C11.7225 7.82962 11.3925 7.6074 11.1375 7.26666L9 4.35555L6.8625 7.26666C6.6075 7.6074 6.2775 7.82962 5.8725 7.93333C5.4675 8.03703 5.07 8.0074 4.68 7.84444L3.645 7.4L4.23 11.1111Z" fill="var(--fill-0, #FFD900)"/>
</svg>
