<svg width="13" height="13" viewBox="0 0 13 13" fill="none" xmlns="http://www.w3.org/2000/svg">
<path d="M6.50001 0C10.09 0 13 2.91005 13 6.5C13 10.0899 10.09 13 6.50001 13C5.3513 13.002 4.22278 12.698 3.23051 12.1192L0.00261004 13L0.881409 9.77079C0.302233 8.7782 -0.00200306 7.64921 9.92464e-06 6.5C9.92464e-06 2.91005 2.91006 0 6.50001 0ZM4.28481 3.445L4.15481 3.4502C4.07076 3.45599 3.98863 3.47806 3.91301 3.5152C3.84253 3.55518 3.77817 3.60509 3.72191 3.6634C3.64391 3.73685 3.59971 3.80055 3.55226 3.8623C3.31184 4.17488 3.18239 4.55865 3.18436 4.953C3.18566 5.2715 3.26886 5.58155 3.39886 5.87145C3.66471 6.45775 4.10216 7.07849 4.67936 7.65374C4.81846 7.79219 4.95496 7.93129 5.10186 8.06064C5.81909 8.69205 6.67374 9.14742 7.59785 9.39054L7.96705 9.44709C8.0873 9.45359 8.20755 9.44449 8.32845 9.43864C8.51772 9.42866 8.70252 9.37742 8.8699 9.28849C8.95495 9.24452 9.03802 9.1968 9.11885 9.14549C9.11885 9.14549 9.14637 9.12686 9.2001 9.08699C9.28785 9.02199 9.3418 8.97584 9.4146 8.89979C9.4692 8.84346 9.5147 8.77803 9.5511 8.70349C9.6018 8.59754 9.6525 8.39539 9.6733 8.22704C9.6889 8.09834 9.68435 8.02814 9.6824 7.98459C9.6798 7.91504 9.62195 7.84289 9.5589 7.81234L9.1806 7.64269C9.1806 7.64269 8.6151 7.39634 8.2693 7.23904C8.23311 7.22329 8.19434 7.21426 8.1549 7.21239C8.11043 7.20774 8.06547 7.2127 8.02308 7.22695C7.98068 7.24119 7.94185 7.26438 7.9092 7.29494C7.90595 7.29364 7.8624 7.33069 7.39245 7.90009C7.36548 7.93634 7.32833 7.96373 7.28573 7.97878C7.24313 7.99383 7.19701 7.99585 7.15325 7.98459C7.11089 7.9733 7.0694 7.95897 7.0291 7.94169C6.9485 7.90789 6.92055 7.89489 6.8653 7.87149C6.49212 7.70893 6.14669 7.48896 5.84156 7.21954C5.75966 7.14804 5.68361 7.07004 5.60561 6.99464C5.3499 6.74973 5.12704 6.47269 4.94261 6.17045L4.90426 6.1087C4.87713 6.06696 4.85488 6.02225 4.83796 5.97545C4.81326 5.8799 4.87761 5.8032 4.87761 5.8032C4.87761 5.8032 5.03556 5.6303 5.10901 5.5367C5.18051 5.4457 5.24096 5.3573 5.27996 5.29425C5.35666 5.17075 5.38071 5.044 5.34041 4.94585C5.15841 4.50125 4.97034 4.05903 4.77621 3.6192C4.73786 3.5321 4.62411 3.4697 4.52076 3.45735C4.48566 3.45301 4.45056 3.44955 4.41546 3.44695C4.32818 3.44194 4.24067 3.44281 4.15351 3.44955L4.28481 3.445Z" fill="#FFD900"/>
</svg>
