<svg xmlns="http://www.w3.org/2000/svg" viewBox="0 0 24 24" fill="#1877F2"><path d="M24 12.1c0-3.3 0-3.7-.2-5-.1-1.1-.5-1.9-1-2.7-.5-.8-1.2-1.4-2-1.9-.8-.5-1.6-.9-2.7-1C15.8 1.2 15.4 1.2 12 1.2s-3.8 0-5 .2c-1.1.1-1.9.5-2.7 1-.8.5-1.4 1.2-1.9 2-.5.8-.9 1.6-1 2.7C1.2 8.4 1.2 8.8 1.2 12.1s0 3.7.2 5c.1 1.1.5 1.9 1 2.7.5.8 1.2 1.4 2 1.9.8.5 1.6.9 2.7 1 1.2.2 1.6.2 5 .2s3.7 0 5-.2c1.1-.1 1.9-.5 2.7-1 .8-.5 1.4-1.2 1.9-2 .5-.8.9-1.6 1-2.7.2-1.3.2-1.7.2-5m-6.7 0v1.5h-2V9.5h-2.5V7H9v2.5H6.5v1.5H9V16c0 1.4.3 2.3 1 2.9.7.6 1.7.9 3.1.9h1.4v-1.5h-1.1c-.8 0-1.3-.2-1.6-.5-.3-.3-.5-.8-.5-1.6v-3.7z"/></svg>
