<svg width="13" height="13" viewBox="0 0 13 13" fill="none" xmlns="http://www.w3.org/2000/svg">
<path d="M9.38889 0C10.3466 0 11.2651 0.380455 11.9423 1.05767C12.6195 1.73488 13 2.65338 13 3.61111V9.38889C13 10.3466 12.6195 11.2651 11.9423 11.9423C11.2651 12.6195 10.3466 13 9.38889 13H3.61111C2.65338 13 1.73488 12.6195 1.05767 11.9423C0.380455 11.2651 0 10.3466 0 9.38889V3.61111C0 2.65338 0.380455 1.73488 1.05767 1.05767C1.73488 0.380455 2.65338 0 3.61111 0H9.38889ZM6.5 3.61111C5.73382 3.61111 4.99902 3.91548 4.45725 4.45725C3.91548 4.99902 3.61111 5.73382 3.61111 6.5C3.61111 7.26618 3.91548 8.00098 4.45725 8.54275C4.99902 9.08453 5.73382 9.38889 6.5 9.38889C7.26618 9.38889 8.00098 9.08453 8.54275 8.54275C9.08453 8.00098 9.38889 7.26618 9.38889 6.5C9.38889 5.73382 9.08453 4.99902 8.54275 4.45725C8.00098 3.91548 7.26618 3.61111 6.5 3.61111ZM6.5 5.05556C6.88309 5.05556 7.25049 5.20774 7.52138 5.47862C7.79226 5.74951 7.94444 6.11691 7.94444 6.5C7.94444 6.88309 7.79226 7.25049 7.52138 7.52138C7.25049 7.79226 6.88309 7.94444 6.5 7.94444C6.11691 7.94444 5.74951 7.79226 5.47862 7.52138C5.20774 7.25049 5.05556 6.88309 5.05556 6.5C5.05556 6.11691 5.20774 5.74951 5.47862 5.47862C5.74951 5.20774 6.11691 5.05556 6.5 5.05556ZM9.75 2.52778C9.55845 2.52778 9.37475 2.60387 9.23931 2.73931C9.10387 2.87475 9.02778 3.05845 9.02778 3.25C9.02778 3.44155 9.10387 3.62525 9.23931 3.76069C9.37475 3.89613 9.55845 3.97222 9.75 3.97222C9.94155 3.97222 10.1252 3.89613 10.2607 3.76069C10.3961 3.62525 10.4722 3.44155 10.4722 3.25C10.4722 3.05845 10.3961 2.87475 10.2607 2.73931C10.1252 2.60387 9.94155 2.52778 9.75 2.52778Z" fill="#FFD900"/>
</svg>
