<svg xmlns="http://www.w3.org/2000/svg" viewBox="0 0 24 24" fill="#25D366"><path d="M12 2C6.5 2 2 6.5 2 12c0 1.8.5 3.5 1.3 5L2 22l5.2-1.3c1.5.8 3.2 1.3 4.8 1.3 5.5 0 10-4.5 10-10S17.5 2 12 2zm5.3 14.2c-.2.6-1.2 1.1-1.7 1.1-.4 0-1-.2-2.4-.9-2.1-1-3.5-3.4-3.6-3.5-.1-.2-1-1.3-1-2.5 0-1.2.6-1.8.8-2 .2-.2.5-.3.7-.3h.5c.2 0 .4-.1.6.5.2.6.7 2 .8 2.1.1.1.1.3 0 .4-.1.2-.2.3-.3.4-.1.1-.2.2-.1.4.1.2.6 1 1.3 1.6.9.8 1.7 1 2 1.1.2.1.4 0 .5-.1.2-.2.8-.9 1-1.2.2-.3.4-.2.7-.1.3.1 1.8.8 2.1 1 .3.1.5.2.6.3.1.2.1 1-.1 1.7z"/></svg>
