<svg width="11" height="14" viewBox="0 0 11 14" fill="none" xmlns="http://www.w3.org/2000/svg">
<path fill-rule="evenodd" clip-rule="evenodd" d="M6.875 0C7.23967 0 7.58941 0.144866 7.84727 0.402728C8.10513 0.66059 8.25 1.01033 8.25 1.375C8.25035 1.85014 8.41453 2.31062 8.71484 2.67882C9.01516 3.04701 9.43325 3.3004 9.89862 3.39625C10.256 3.46882 10.5699 3.68038 10.7713 3.9844C10.9727 4.28842 11.0451 4.65999 10.9725 5.01737C10.8999 5.37475 10.6884 5.68866 10.3843 5.89006C10.0803 6.09145 9.70875 6.16382 9.35137 6.09125C8.97075 6.01354 8.60093 5.89004 8.25 5.72343V9.62499C8.24996 10.3965 8.03355 11.1526 7.62534 11.8073C7.21713 12.462 6.63349 12.9891 5.94072 13.3287C5.24794 13.6683 4.47381 13.8068 3.70626 13.7285C2.93871 13.6502 2.20851 13.3582 1.59861 12.8856C0.988709 12.4131 0.523556 11.779 0.255992 11.0553C-0.0115715 10.3317 -0.07082 9.54749 0.0849769 8.79185C0.240774 8.0362 0.605371 7.3394 1.13735 6.78059C1.66933 6.22179 2.34737 5.82338 3.09444 5.63062C3.44535 5.54599 3.81546 5.60275 4.12489 5.78864C4.43431 5.97453 4.65823 6.27464 4.7483 6.6242C4.83838 6.97375 4.78738 7.3447 4.60632 7.65698C4.42526 7.96926 4.12867 8.19781 3.78056 8.29331C3.45824 8.37883 3.17794 8.57847 2.99173 8.85511C2.80553 9.13175 2.7261 9.46659 2.76819 9.79739C2.81029 10.1282 2.97105 10.4325 3.22061 10.6537C3.47016 10.8749 3.79153 10.9979 4.125 11C4.48967 11 4.83941 10.8551 5.09727 10.5973C5.35513 10.3394 5.5 9.98967 5.5 9.62499V1.375C5.5 1.01033 5.64486 0.66059 5.90273 0.402728C6.16059 0.144866 6.51032 0 6.875 0Z" fill="#FFD900"/>
</svg>
