<svg width="15" height="12" viewBox="0 0 15 12" fill="none" xmlns="http://www.w3.org/2000/svg">
<path d="M7.68338 0C8.0839 0.00225014 9.08595 0.0120007 10.151 0.0547534L10.529 0.0712543C11.6008 0.121507 12.6719 0.208513 13.2037 0.356272C13.9124 0.555785 14.469 1.13632 14.6572 1.87287C14.9572 3.04294 14.9947 5.32458 14.9992 5.87737L15 5.99137V6.12188C14.9948 6.67467 14.9572 8.95706 14.6572 10.1264C14.4667 10.8652 13.9094 11.4465 13.2037 11.643C12.6719 11.7907 11.6008 11.8777 10.529 11.928L10.151 11.9452C9.08595 11.9872 8.0839 11.9977 7.68338 11.9992L7.50712 12H7.31587C6.46832 11.9948 2.92365 11.9565 1.79559 11.643C1.08755 11.4435 0.530277 10.8629 0.342017 10.1264C0.0420022 8.95631 0.00450023 6.67467 0 6.12188V5.87737C0.00450023 5.32458 0.0420022 3.04219 0.342017 1.87287C0.532527 1.13407 1.0898 0.552784 1.79634 0.357022C2.92365 0.0427525 6.46907 0.00450028 7.31662 0H7.68338ZM5.99955 3.37521V8.62554L10.4998 6.00037L5.99955 3.37521Z" fill="#FFD900"/>
</svg>
