<svg xmlns="http://www.w3.org/2000/svg" viewBox="0 0 24 24" fill="#E4405F"><path d="M12 2.2c3.2 0 3.6 0 4.8.1 1.2.1 2 .3 2.7.6.7.3 1.3.7 1.9 1.3.6.6 1 1.2 1.3 1.9.3.7.5 1.5.6 2.7.1 1.2.1 1.6.1 4.8s0 3.6-.1 4.8c-.1 1.2-.3 2-.6 2.7-.3.7-.7 1.3-1.3 1.9-.6.6-1.2 1-1.9 1.3-.7.3-1.5.5-2.7.6-1.2.1-1.6.1-4.8.1s-3.6 0-4.8-.1c-1.2-.1-2-.3-2.7-.6-.7-.3-1.3-.7-1.9-1.3-.6-.6-1-1.2-1.3-1.9-.3-.7-.5-1.5-.6-2.7C2.2 15.6 2.2 15.2 2.2 12s0-3.6.1-4.8c.1-1.2.3-2 .6-2.7.3-.7.7-1.3 1.3-1.9.6-.6 1.2-1 1.9-1.3.7-.3 1.5-.5 2.7-.6 1.2-.1 1.6-.1 4.8-.1M12 7a5 5 0 1 0 0 10 5 5 0 0 0 0-10m0 8.2a3.2 3.2 0 1 1 0-6.4 3.2 3.2 0 0 1 0 6.4m5.3-9.9a1.2 1.2 0 1 0 0 2.4 1.2 1.2 0 0 0 0-2.4"/></svg>
