<svg preserveAspectRatio="none" width="100%" height="100%" overflow="visible" style="display: block;" viewBox="0 0 9 10" fill="none" xmlns="http://www.w3.org/2000/svg">
<path id="Vector" d="M0.642857 9.35002H3.01629V6.05005C3.01629 5.90142 3.06621 5.77684 3.16607 5.67631C3.2655 5.57534 3.38871 5.52486 3.53571 5.52486H5.46429C5.61129 5.52486 5.73471 5.57534 5.83457 5.67631C5.934 5.77684 5.98371 5.90142 5.98371 6.05005V9.35002H8.35714V3.70036C8.35714 3.63363 8.34279 3.57296 8.31407 3.51836C8.28536 3.46376 8.24614 3.4161 8.19643 3.37537L4.73529 0.737732C4.66929 0.679667 4.59086 0.650634 4.5 0.650634C4.40914 0.650634 4.33093 0.679667 4.26536 0.737732L0.803571 3.37537C0.754286 3.41696 0.715071 3.46463 0.685929 3.51836C0.656786 3.57209 0.642429 3.63276 0.642857 3.70036V9.35002ZM0 9.35002V3.70036C0 3.53396 0.0368571 3.37645 0.110571 3.22782C0.184286 3.07919 0.285857 2.95678 0.415286 2.86058L3.87707 0.209945C4.05836 0.0699819 4.26536 0 4.49807 0C4.73079 0 4.93907 0.0699819 5.12293 0.209945L8.58471 2.85993C8.71457 2.95613 8.81614 3.07876 8.88943 3.22782C8.96314 3.37645 9 3.53396 9 3.70036V9.35002C9 9.52421 8.93593 9.67609 8.80779 9.80566C8.67964 9.93522 8.52943 10 8.35714 10H5.86029C5.71286 10 5.58943 9.94973 5.49 9.8492C5.39057 9.74824 5.34086 9.62344 5.34086 9.47481V6.1755H3.65914V9.47481C3.65914 9.62388 3.60943 9.74867 3.51 9.8492C3.41057 9.94973 3.28736 10 3.14036 10H0.642857C0.470571 10 0.320357 9.93522 0.192214 9.80566C0.0640713 9.67609 0 9.52421 0 9.35002Z" fill="var(--fill-0, white)" fill-opacity="0.5"/>
</svg>
