<svg preserveAspectRatio="none" width="100%" height="100%" overflow="visible" style="display: block;" viewBox="0 0 9 10" fill="none" xmlns="http://www.w3.org/2000/svg">
<path id="Vector" d="M7.35966 6.63199C6.9319 6.63185 6.52112 6.8038 6.21541 7.11097L3.23539 5.39087C3.2966 5.13144 3.2966 4.86075 3.23539 4.60132L6.21447 2.88122C6.49278 3.15915 6.85836 3.3263 7.24577 3.35276C7.63317 3.37922 8.0171 3.26326 8.32882 3.02564C8.64055 2.78801 8.85971 2.44424 8.94707 2.05586C9.03444 1.66749 8.9843 1.25987 8.80564 0.90598C8.62698 0.552091 8.33146 0.275039 7.97199 0.124423C7.61251 -0.0261926 7.21255 -0.0405378 6.84372 0.0839559C6.47488 0.20845 6.16124 0.463653 5.95896 0.803879C5.75668 1.14411 5.67896 1.54714 5.73971 1.94083L2.69033 3.70182C2.45081 3.49694 2.15938 3.36639 1.85018 3.32544C1.54098 3.2845 1.22682 3.33486 0.944503 3.47063C0.662185 3.6064 0.423399 3.82195 0.256121 4.09204C0.0888431 4.36212 0 4.67555 0 4.99561C0 5.31567 0.0888431 5.6291 0.256121 5.89919C0.423399 6.16927 0.662185 6.38483 0.944503 6.52059C1.22682 6.65636 1.54098 6.70673 1.85018 6.66578C2.15938 6.62484 2.45081 6.49428 2.69033 6.28941L5.73971 8.05136C5.68699 8.39147 5.73712 8.74 5.88333 9.04996C6.02953 9.35992 6.2648 9.6164 6.55739 9.78484C6.84999 9.95328 7.18586 10.0256 7.51972 9.99196C7.85357 9.95836 8.16937 9.82048 8.42453 9.59691C8.67969 9.37334 8.86195 9.07483 8.94674 8.74162C9.03153 8.40842 9.01477 8.05653 8.89871 7.73341C8.78266 7.41028 8.5729 7.13146 8.2977 6.93451C8.02251 6.73757 7.69512 6.63198 7.35966 6.63199Z" fill="var(--fill-0, white)" fill-opacity="0.5"/>
</svg>
