<svg preserveAspectRatio="none" width="100%" height="100%" overflow="visible" style="display: block;" viewBox="0 0 15 7" fill="none" xmlns="http://www.w3.org/2000/svg">
<path id="Vector" fill-rule="evenodd" clip-rule="evenodd" d="M0 0.736841C0 0.541418 0.0825594 0.354 0.229516 0.215816C0.376473 0.0776314 0.575789 0 0.783617 0H1.52962C2.36261 0 3.05924 0.628525 3.05924 1.428V6.26315C3.05924 6.45857 2.97668 6.64599 2.82973 6.78417C2.68277 6.92236 2.48345 6.99999 2.27562 6.99999C2.0678 6.99999 1.86848 6.92236 1.72152 6.78417C1.57457 6.64599 1.49201 6.45857 1.49201 6.26315V1.47368H0.783617C0.575789 1.47368 0.376473 1.39605 0.229516 1.25787C0.0825594 1.11968 0 0.932263 0 0.736841ZM4.47759 0.736841C4.47759 0.541418 4.56015 0.354 4.7071 0.215816C4.85406 0.0776314 5.05338 0 5.26121 0H7.5C8.33377 0 9.0304 0.628525 9.0304 1.428V2.80884C9.02969 2.99717 8.9895 3.18352 8.91214 3.35723C8.83478 3.53095 8.72177 3.68862 8.57957 3.82125C8.43736 3.95387 8.26875 4.05883 8.08338 4.13014C7.898 4.20145 7.6995 4.23771 7.49922 4.23683H6.04404V5.52631H8.246C8.45383 5.52631 8.65315 5.60394 8.8001 5.74212C8.94706 5.88031 9.02962 6.06772 9.02962 6.26315C9.02962 6.45857 8.94706 6.64599 8.8001 6.78417C8.65315 6.92236 8.45383 6.99999 8.246 6.99999H6.00643C5.60233 7.00136 5.2142 6.85178 4.92737 6.58414C4.64053 6.31649 4.47846 5.9527 4.4768 5.57273V4.19041C4.4768 3.39168 5.17344 2.76315 6.00643 2.76315H7.46239V1.47368H5.26042C5.05259 1.47368 4.85328 1.39605 4.70632 1.25787C4.55936 1.11968 4.4768 0.932263 4.4768 0.736841M10.4472 0.736841C10.4472 0.541418 10.5297 0.354 10.6767 0.215816C10.8237 0.0776314 11.023 0 11.2308 0H13.4696C14.3026 0 15 0.628525 15 1.428V5.57199C14.9993 5.76026 14.9591 5.94655 14.8818 6.12021C14.8045 6.29388 14.6916 6.45153 14.5494 6.58414C14.4073 6.71675 14.2388 6.82173 14.0535 6.89308C13.8682 6.96444 13.6698 7.00076 13.4696 6.99999H11.2308C11.023 6.99999 10.8237 6.92236 10.6767 6.78417C10.5297 6.64599 10.4472 6.45857 10.4472 6.26315C10.4472 6.06772 10.5297 5.88031 10.6767 5.74212C10.8237 5.60394 11.023 5.52631 11.2308 5.52631H13.4328V4.23683H11.2308C11.023 4.23683 10.8237 4.1592 10.6767 4.02102C10.5297 3.88283 10.4472 3.69542 10.4472 3.49999C10.4472 3.30457 10.5297 3.11715 10.6767 2.97897C10.8237 2.84078 11.023 2.76315 11.2308 2.76315H13.4328V1.47368H11.2308C11.023 1.47368 10.8237 1.39605 10.6767 1.25787C10.5297 1.11968 10.4472 0.932263 10.4472 0.736841Z" fill="var(--fill-0, white)" fill-opacity="0.5"/>
</svg>
