<svg preserveAspectRatio="none" width="100%" height="100%" overflow="visible" style="display: block;" viewBox="0 0 10.0052 9.99748" fill="none" xmlns="http://www.w3.org/2000/svg">
<path id="Vector" d="M5.25003 0.567145C5.32508 0.611113 5.38706 0.674285 5.42958 0.750159C5.84801 1.5088 6.19244 2.30646 6.45809 3.1311C6.49479 3.23811 6.5636 3.3312 6.65514 3.39768C6.74667 3.46416 6.85648 3.5008 6.9696 3.5026C7.68504 3.52068 8.39816 3.59171 9.10311 3.71509C9.49062 3.78309 9.63562 4.22408 9.36062 4.49307C8.82725 5.01484 8.25747 5.49805 7.6556 5.93904C7.4716 6.07354 7.3966 6.30403 7.4666 6.51503C7.68825 7.18114 7.8576 7.86353 7.9731 8.55598C7.9961 8.69598 8.01727 8.83681 8.03661 8.97847C8.08661 9.35596 7.6821 9.62246 7.3316 9.44246C6.63546 9.08578 5.96988 8.6724 5.34158 8.20649C5.24315 8.13465 5.12444 8.09593 5.00258 8.09593C4.88072 8.09593 4.76201 8.13465 4.66358 8.20649C4.03516 8.67221 3.36959 9.08559 2.67356 9.44246C2.32256 9.62246 1.91856 9.35596 1.96856 8.97847C2.08107 8.1413 2.27191 7.31653 2.53856 6.51503C2.60856 6.30403 2.53306 6.07354 2.34956 5.93904C1.81905 5.54945 1.31308 5.12749 0.834549 4.67557C0.770549 4.61557 0.707215 4.55474 0.644548 4.49307C0.369546 4.22408 0.515047 3.78309 0.90205 3.71509C1.6071 3.59242 2.32017 3.5214 3.03557 3.5026C3.27157 3.4961 3.47757 3.3466 3.54707 3.1311C3.74884 2.50456 3.99617 1.89361 4.28708 1.30315C4.37941 1.11648 4.47558 0.932155 4.57558 0.750159C4.61811 0.674285 4.68009 0.611113 4.75514 0.567145C4.83019 0.523177 4.9156 0.5 5.00258 0.5C5.08956 0.5 5.17498 0.523177 5.25003 0.567145Z" stroke="var(--stroke-0, #102148)" stroke-linecap="round" stroke-linejoin="round"/>
</svg>
