<svg preserveAspectRatio="none" width="100%" height="100%" overflow="visible" style="display: block;" viewBox="0 0 11 10" fill="none" xmlns="http://www.w3.org/2000/svg">
<path id="Vector" d="M2.2 9.99999C2.04417 9.99999 1.91363 9.94666 1.8084 9.83999C1.70317 9.73333 1.65037 9.60147 1.65 9.44444C1.64963 9.2874 1.70243 9.15555 1.8084 9.04888C1.91437 8.94222 2.0449 8.88888 2.2 8.88888H8.8C8.95583 8.88888 9.08655 8.94222 9.19215 9.04888C9.29775 9.15555 9.35036 9.2874 9.35 9.44444C9.34963 9.60147 9.29683 9.73351 9.1916 9.84055C9.08636 9.94759 8.95583 10.0007 8.8 9.99999H2.2ZM2.585 8.05555C2.31917 8.05555 2.08322 7.96759 1.87715 7.79166C1.67108 7.61574 1.54495 7.39351 1.49875 7.125L0.948751 3.59722C0.930417 3.59722 0.909884 3.59963 0.887151 3.60444C0.864417 3.60926 0.843701 3.61148 0.825001 3.61111C0.595834 3.61111 0.401134 3.53018 0.240901 3.36833C0.0806678 3.20648 0.000367916 3.00963 1.25e-06 2.77778C-0.000365416 2.54593 0.0799345 2.34926 0.240901 2.18778C0.401868 2.0263 0.596568 1.94518 0.825001 1.94444C1.05343 1.9437 1.24832 2.02481 1.40965 2.18778C1.57098 2.35074 1.6511 2.54741 1.65 2.77778C1.65 2.84259 1.64303 2.90278 1.6291 2.95833C1.61517 3.01389 1.59922 3.06481 1.58125 3.11111L3.3 3.88889L5.01875 1.51389C4.91792 1.43981 4.83542 1.34259 4.77125 1.22222C4.70708 1.10185 4.675 0.972223 4.675 0.833334C4.675 0.601853 4.7553 0.405001 4.9159 0.242779C5.0765 0.0805568 5.2712 -0.000369105 5.5 1.2655e-06C5.7288 0.000371636 5.92368 0.0814826 6.08465 0.243334C6.24561 0.405186 6.32573 0.601853 6.325 0.833334C6.325 0.972223 6.29291 1.10185 6.22875 1.22222C6.16458 1.34259 6.08208 1.43981 5.98125 1.51389L7.7 3.88889L9.41875 3.11111C9.40041 3.06481 9.38428 3.01389 9.37035 2.95833C9.35641 2.90278 9.34963 2.84259 9.35 2.77778C9.35 2.5463 9.4303 2.34944 9.5909 2.18722C9.7515 2.025 9.9462 1.94407 10.175 1.94444C10.4038 1.94481 10.5987 2.02593 10.7596 2.18778C10.9206 2.34963 11.0007 2.5463 11 2.77778C10.9993 3.00926 10.9191 3.20611 10.7596 3.36833C10.6001 3.53055 10.4053 3.61148 10.175 3.61111C10.1567 3.61111 10.1361 3.60889 10.1134 3.60444C10.0907 3.6 10.0699 3.59759 10.0512 3.59722L9.50125 7.125C9.45541 7.39351 9.32946 7.61574 9.1234 7.79166C8.91733 7.96759 8.6812 8.05555 8.415 8.05555H2.585ZM2.585 6.94444H8.415L8.7725 4.625L8.14 4.90277C7.90166 5.00463 7.65875 5.02315 7.41125 4.95833C7.16375 4.89352 6.96208 4.75463 6.80625 4.54166L5.5 2.72222L4.19375 4.54166C4.03792 4.75463 3.83625 4.89352 3.58875 4.95833C3.34125 5.02315 3.09833 5.00463 2.86 4.90277L2.2275 4.625L2.585 6.94444Z" fill="var(--fill-0, #102148)"/>
</svg>
